<?xml version="1.0" encoding="iso-8859-1"?>
<!-- Generator: Adobe Illustrator 18.0.0, SVG Export Plug-In . SVG Version: 6.00 Build 0)  -->
<!DOCTYPE svg PUBLIC "-//W3C//DTD SVG 1.1//EN" "http://www.w3.org/Graphics/SVG/1.1/DTD/svg11.dtd">
<!-- License: CC0. Made by SVG Repo: https://www.svgrepo.com/svg/158502/robot -->
<svg version="1.1" id="Capa_1" xmlns="http://www.w3.org/2000/svg" xmlns:xlink="http://www.w3.org/1999/xlink" x="0px" y="0px"
	 viewBox="0 0 456.695 456.695" style="enable-background:new 0 0 456.695 456.695;" xml:space="preserve">
<g>
	<path d="M247.181,43.339h-37.667c-7.776,0-14.104,6.327-14.104,14.104s6.327,14.104,14.104,14.104h37.667
		c7.777,0,14.104-6.327,14.104-14.104S254.958,43.339,247.181,43.339z M205.41,57.442c0-2.263,1.841-4.104,4.104-4.104h13.299v8.208
		h-13.299C207.251,61.546,205.41,59.706,205.41,57.442z M247.181,61.546h-14.368v-8.208h14.368c2.264,0,4.104,1.841,4.104,4.104
		C251.285,59.706,249.445,61.546,247.181,61.546z"/>
	<path d="M186.71,136.84c-7.793,0-14.134,6.34-14.134,14.133v104.229c0,7.793,6.341,14.133,14.134,14.133s14.133-6.34,14.133-14.133
		V150.974C200.843,143.181,194.503,136.84,186.71,136.84z M190.843,255.203c0,2.279-1.854,4.133-4.133,4.133
		s-4.134-1.854-4.134-4.133V150.974c0-2.279,1.854-4.133,4.134-4.133s4.133,1.854,4.133,4.133V255.203z"/>
	<path d="M269.986,136.84c-7.793,0-14.134,6.34-14.134,14.133v104.229c0,7.793,6.341,14.133,14.134,14.133
		s14.133-6.34,14.133-14.133V150.974C284.118,143.181,277.779,136.84,269.986,136.84z M274.118,255.203
		c0,2.279-1.854,4.133-4.133,4.133s-4.134-1.854-4.134-4.133V150.974c0-2.279,1.854-4.133,4.134-4.133s4.133,1.854,4.133,4.133
		V255.203z"/>
	<path d="M228.348,136.84c-11.003,0-19.955,8.952-19.955,19.955v92.585c0,11.003,8.952,19.955,19.955,19.955
		s19.955-8.952,19.955-19.955v-92.585C248.303,145.792,239.351,136.84,228.348,136.84z M238.303,249.381
		c0,5.489-4.466,9.955-9.955,9.955s-9.955-4.466-9.955-9.955v-92.585c0-5.489,4.466-9.955,9.955-9.955s9.955,4.466,9.955,9.955
		V249.381z"/>
	<path d="M293.125,285.823h8.167V178h9.666v76.662h57.279v-5c0-14.607-11.884-26.49-26.491-26.49h-0.372v-58.397
		c0-14.015-11.401-25.416-25.416-25.416h-5v11.82h-9.666v-30.825h-16.367V98.84H268.27V87.327h16.655V73.46
		c0-29.51-22.716-53.802-51.577-56.343V0h-10v17.117c-28.862,2.541-51.577,26.833-51.577,56.343v13.867h16.655V98.84h-16.655v21.513
		h-16.368v30.825h-9.665v-11.82h-5c-14.015,0-25.416,11.401-25.416,25.416v58.397h-0.373c-14.606,0-26.49,11.883-26.49,26.49v5
		h57.279V178h9.665v107.823h8.158l-9.315,32.236h12.364l-5.802,17.192h135.081l-5.803-17.192h12.366L293.125,285.823z
		 M341.746,233.171c7.352,0,13.594,4.834,15.717,11.49h-36.505v-11.49h20.416H341.746z M320.958,150.19
		c6.054,2.082,10.416,7.833,10.416,14.584v58.397h-10.416V150.19z M310.958,161.178V168h-9.666v-6.822H310.958z M258.27,98.84
		h-10.457V87.327h10.457V98.84z M237.813,87.327V98.84h-18.931V87.327H237.813z M181.771,77.327V73.46
		c0-25.683,20.895-46.577,46.577-46.577s46.577,20.894,46.577,46.577v3.867H181.771z M198.426,87.327h10.456V98.84h-10.456V87.327z
		 M181.771,108.84h93.154v11.513h-93.154V108.84z M165.403,130.354h125.89v145.469h-125.89V130.354z M135.738,244.662H99.233
		c2.122-6.656,8.365-11.49,15.716-11.49h0.373h20.416V244.662z M125.322,223.171v-58.397c0-6.751,4.362-12.502,10.416-14.584v72.981
		H125.322z M145.738,168v-6.822h9.665V168H145.738z M282.716,285.823l6.434,22.236H167.544l6.426-22.236H282.716z M281.959,325.251
		H174.736l2.427-7.192h102.369L281.959,325.251z"/>
	<path d="M201.992,350.614c-11.639,11.638-14.288,29.232-6.594,43.782l32.949,62.299l32.948-62.299
		c7.694-14.549,5.045-32.144-6.593-43.782C240.172,336.082,216.524,336.082,201.992,350.614z M252.456,389.721l-24.108,45.584
		l-24.109-45.584c-5.63-10.646-3.691-23.52,4.824-32.036c5.317-5.317,12.301-7.976,19.285-7.976s13.968,2.659,19.285,7.976
		C256.148,366.2,258.086,379.074,252.456,389.721z"/>
	<path d="M96.853,268.316c-8.94,8.94-10.976,22.455-5.064,33.63l25.31,47.854l25.309-47.854c5.911-11.176,3.876-24.691-5.064-33.631
		C126.18,257.153,108.015,257.154,96.853,268.316z M133.567,297.272l-16.469,31.14l-16.47-31.14
		c-3.847-7.272-2.522-16.066,3.295-21.884c3.633-3.632,8.403-5.448,13.174-5.448c4.771,0,9.542,1.816,13.175,5.448
		C136.089,281.205,137.413,290,133.567,297.272z"/>
	<path d="M359.842,268.316c-11.162-11.164-29.327-11.162-40.489,0c-8.94,8.94-10.976,22.455-5.064,33.63l25.31,47.854l25.309-47.854
		C370.818,290.771,368.782,277.256,359.842,268.316z M356.067,297.272l-16.469,31.14l-16.47-31.14
		c-3.847-7.272-2.522-16.066,3.295-21.884c3.633-3.632,8.403-5.448,13.174-5.448c4.771,0,9.542,1.816,13.175,5.448
		C358.589,281.205,359.913,290,356.067,297.272z"/>
</g>
</svg>
